<?xml version="1.0" encoding="UTF-8" standalone="no"?>
<!DOCTYPE svg PUBLIC "-//W3C//DTD SVG 1.1//EN" "http://www.w3.org/Graphics/SVG/1.1/DTD/svg11.dtd">
<svg width="100%" height="100%" viewBox="0 0 900 300" version="1.1" xmlns="http://www.w3.org/2000/svg" xmlns:xlink="http://www.w3.org/1999/xlink" xml:space="preserve" xmlns:serif="http://www.serif.com/" style="fill-rule:evenodd;clip-rule:evenodd;stroke-linejoin:round;stroke-miterlimit:2;">
    <path d="M0,131L15,139.8C30,148.7 60,166.3 90,172.2C120,178 150,172 180,166.3C210,160.7 240,155.3 270,152.8C300,150.3 330,150.7 360,149C390,147.3 420,143.7 450,155.3C480,167 510,194 540,199.2C570,204.3 600,187.7 630,185.7C660,183.7 690,196.3 720,202C750,207.7 780,206.3 810,195.7C840,185 870,165 885,155L900,145L900,0L0,0L0,131Z" style="fill:rgb(50,112,127);fill-opacity:0.84;fill-rule:nonzero;"/>
    <path d="M0,127L15,124.8C30,122.7 60,118.3 90,118.5C120,118.7 150,123.3 180,123.7C210,124 240,120 270,117C300,114 330,112 360,120C390,128 420,146 450,149.5C480,153 510,142 540,137.8C570,133.7 600,136.3 630,135.7C660,135 690,131 720,128.3C750,125.7 780,124.3 810,129C840,133.7 870,144.3 885,149.7L900,155L900,0L0,0L0,127Z" style="fill:rgb(55,128,146);fill-opacity:0.74;fill-rule:nonzero;"/>
    <g transform="matrix(1,0,0,1.06308,0,0)">
        <path d="M0,60L15,61.2C30,62.3 60,64.7 90,75C120,85.3 150,103.7 180,104.2C210,104.7 240,87.3 270,85.5C300,83.7 330,97.3 360,96.8C390,96.3 420,81.7 450,84.3C480,87 510,107 540,115.8C570,124.7 600,122.3 630,119.8C660,117.3 690,114.7 720,111.2C750,107.7 780,103.3 810,105C840,106.7 870,114.3 885,118.2L900,122L900,0L0,0L0,60Z" style="fill:rgb(59,144,166);fill-opacity:0.67;fill-rule:nonzero;"/>
    </g>
    <g transform="matrix(1,0,0,1.15996,0,0)">
        <path d="M0,36L15,35.7C30,35.3 60,34.7 90,38C120,41.3 150,48.7 180,52.5C210,56.3 240,56.7 270,60.2C300,63.7 330,70.3 360,72.7C390,75 420,73 450,67.2C480,61.3 510,51.7 540,48.8C570,46 600,50 630,50.5C660,51 690,48 720,45.2C750,42.3 780,39.7 810,41.7C840,43.7 870,50.3 885,53.7L900,57L900,0L0,0L0,36Z" style="fill:rgb(33,179,213);fill-rule:nonzero;"/>
    </g>
</svg>
